<svg width="84.000000" height="84.000000" viewBox="0 0 84 84" fill="none" xmlns="http://www.w3.org/2000/svg" xmlns:xlink="http://www.w3.org/1999/xlink">
	<desc>
			Created with Pixso.
	</desc>
	<defs/>
	<circle id="椭圆 8" cx="42.000000" cy="42.000000" r="42.000000" fill="#DFDFDF"/>
	<path id="Account" d="M26 58.5L26 50.3333C26.1003 48.334 27.3004 46.5551 29.1167 45.7133C37.6995 42.2654 47.2822 42.2654 55.865 45.7133C57.6884 46.55 58.8962 48.3299 59 50.3334L59 58.5C59 61.5376 56.5376 61.5 53.5 61.5L31.5 61.5C28.4624 61.5 26 61.5376 26 58.5ZM42.5 21C37.4374 21 33.3334 25.1041 33.3334 30.1667C33.3334 35.2292 37.4374 39.3333 42.5 39.3333C47.5626 39.3333 51.6666 35.2292 51.6666 30.1667C51.6666 25.1041 47.5626 21 42.5 21Z" fill-rule="nonzero" fill="#B2B2B2"/>
</svg>
