 <svg width="32.000000" height="32.000000" viewBox="0 0 32 32" fill="none" xmlns="http://www.w3.org/2000/svg" xmlns:xlink="http://www.w3.org/1999/xlink"><path id="Invite" d="M31.9999 20.2933L31.9999 24.5599C31.9926 26.8175 30.1642 28.646 27.9066 28.6532L16.5733 28.6533L16.28 28.6533L15.9866 28.6533L14.7466 28.6533C12.489 28.646 10.6606 26.8175 10.6533 24.5599L10.6533 20.2933C10.7053 18.636 11.707 17.1567 13.2266 16.4932C18.4225 14.393 24.2309 14.393 29.4266 16.4933C30.9462 17.1567 31.9479 18.636 31.9999 20.2933ZM21.3333 12.6667C24.2788 12.6667 26.6666 10.2789 26.6666 7.33331C26.6666 4.38779 24.2788 2 21.3333 2C18.3878 2 16 4.38779 16 7.33331C16 10.2789 18.3878 12.6667 21.3333 12.6667ZM12 14C12.7363 14 13.3333 13.4031 13.3333 12.6667C13.3333 11.9302 12.7363 11.3333 12 11.3333L8 11.3333L8 7.33331C8 6.59692 7.40302 6 6.66669 6C5.9303 6 5.33331 6.59692 5.33331 7.33331L5.33331 11.3333L1.33331 11.3333C0.596985 11.3333 0 11.9302 0 12.6667C0 13.4031 0.596985 14 1.33331 14L5.33331 14L5.33331 18C5.33331 18.7364 5.9303 19.3333 6.66669 19.3333C7.40302 19.3333 8 18.7364 8 18L8 14L12 14Z" fill="#ACD41D" fill-opacity="1.000000" fill-rule="nonzero"/><path id="Invite" d="M31.9999 24.5599C31.9926 26.8175 30.1642 28.646 27.9066 28.6532L16.5733 28.6533L16.28 28.6533L15.9866 28.6533L14.7466 28.6533C12.489 28.646 10.6606 26.8175 10.6533 24.5599L10.6533 20.2933C10.7053 18.636 11.707 17.1567 13.2266 16.4932C18.4225 14.393 24.2309 14.393 29.4266 16.4933C30.9462 17.1567 31.9479 18.636 31.9999 20.2933L31.9999 24.5599ZM26.6666 7.33331C26.6666 4.38779 24.2788 2 21.3333 2C18.3878 2 16 4.38779 16 7.33331C16 10.2789 18.3878 12.6667 21.3333 12.6667C24.2788 12.6667 26.6666 10.2789 26.6666 7.33331ZM13.3333 12.6667C13.3333 11.9302 12.7363 11.3333 12 11.3333L8 11.3333L8 7.33331C8 6.59692 7.40302 6 6.66669 6C5.9303 6 5.33331 6.59692 5.33331 7.33331L5.33331 11.3333L1.33331 11.3333C0.596985 11.3333 0 11.9302 0 12.6667C0 13.4031 0.596985 14 1.33331 14L5.33331 14L5.33331 18C5.33331 18.7364 5.9303 19.3333 6.66669 19.3333C7.40302 19.3333 8 18.7364 8 18L8 14L12 14C12.7363 14 13.3333 13.4031 13.3333 12.6667Z" stroke="#707070" stroke-opacity="0" stroke-width="1.000000"/></svg>
