<svg width="32.000000" height="32.000000" viewBox="0 0 32 32" fill="none" xmlns="http://www.w3.org/2000/svg" xmlns:xlink="http://www.w3.org/1999/xlink"><path id="Group" d="M12.3047 28.8963C12.4399 29.0962 12.4542 29.3544 12.3419 29.5681C12.2295 29.7817 12.0088 29.9163 11.7675 29.9184L2.62085 29.9184C1.17334 29.9184 0 28.745 0 27.2976L0 21.047C0.0599365 19.9684 0.710083 19.0109 1.69043 18.5572C5.08032 17.1639 8.77197 16.6675 12.4095 17.1158C12.6538 17.1418 12.8629 17.3024 12.9513 17.5316C13.0397 17.7607 12.9923 18.0201 12.8289 18.2034C12.1965 18.8468 11.8234 19.7005 11.7805 20.6015L11.7805 27.1535C11.8015 27.77 11.9821 28.3705 12.3047 28.8963ZM9.828 2.39999C6.57129 2.39999 3.93115 5.04007 3.93115 8.29678C3.93115 11.5535 6.57129 14.1936 9.828 14.1936C13.0847 14.1936 15.7249 11.5535 15.7249 8.29678C15.7249 5.04007 13.0847 2.39999 9.828 2.39999ZM17.0352 29.9184L29.3792 29.9184C30.8267 29.9184 32 28.745 32 27.2976L32 22.056C31.9435 20.9833 31.2979 20.0299 30.3226 19.5794C25.7229 17.731 20.5867 17.7309 15.9868 19.5793C15.0524 20.0587 14.4507 21.0064 14.4144 22.056L14.4144 27.2976C14.4144 28.745 15.5878 29.9184 17.0352 29.9184ZM23.5872 5.02078C20.6924 5.02078 18.3456 7.36749 18.3456 10.2624C18.3456 13.1573 20.6924 15.504 23.5872 15.504C26.4821 15.504 28.8289 13.1573 28.8289 10.2624C28.8289 7.36749 26.4821 5.02078 23.5872 5.02078Z" fill="#ACD41D" fill-opacity="1.000000" fill-rule="nonzero"/><path id="Group" d="M12.3419 29.5681C12.2295 29.7817 12.0088 29.9163 11.7675 29.9184L2.62085 29.9184C1.17334 29.9184 0 28.745 0 27.2976L0 21.047C0.0599365 19.9684 0.710083 19.0109 1.69043 18.5572C5.08032 17.1639 8.77197 16.6675 12.4095 17.1158C12.6538 17.1418 12.8629 17.3024 12.9513 17.5316C13.0397 17.7607 12.9923 18.0201 12.8289 18.2034C12.1965 18.8468 11.8234 19.7005 11.7805 20.6015L11.7805 27.1535C11.8015 27.77 11.9821 28.3705 12.3047 28.8963C12.4399 29.0962 12.4542 29.3544 12.3419 29.5681ZM3.93115 8.29678C3.93115 11.5535 6.57129 14.1936 9.828 14.1936C13.0847 14.1936 15.7249 11.5535 15.7249 8.29678C15.7249 5.04007 13.0847 2.39999 9.828 2.39999C6.57129 2.39999 3.93115 5.04007 3.93115 8.29678ZM29.3792 29.9184C30.8267 29.9184 32 28.745 32 27.2976L32 22.056C31.9435 20.9833 31.2979 20.0299 30.3226 19.5794C25.7229 17.731 20.5867 17.7309 15.9868 19.5793C15.0524 20.0587 14.4507 21.0064 14.4144 22.056L14.4144 27.2976C14.4144 28.745 15.5878 29.9184 17.0352 29.9184L29.3792 29.9184ZM18.3456 10.2624C18.3456 13.1573 20.6924 15.504 23.5872 15.504C26.4821 15.504 28.8289 13.1573 28.8289 10.2624C28.8289 7.36749 26.4821 5.02078 23.5872 5.02078C20.6924 5.02078 18.3456 7.36749 18.3456 10.2624Z" stroke="#707070" stroke-opacity="0" stroke-width="1.000000"/></svg>
