<svg width="32.000000" height="32.000000" viewBox="0 0 32 32" fill="none" xmlns="http://www.w3.org/2000/svg" xmlns:xlink="http://www.w3.org/1999/xlink"><path id="Infographic" d="M3.47827 29.0434C1.55725 29.0438 0 27.4864 0 25.5655L0 20C0 18.0791 1.55725 16.5217 3.47827 16.5217C5.39929 16.5217 6.95648 18.0791 6.95648 20L6.95648 25.5652C6.95648 27.4864 5.39929 29.0434 3.47827 29.0434ZM19.4782 25.5652L19.4782 15.826C19.4782 13.9052 17.921 12.3478 15.9999 12.3478C14.0789 12.3478 12.5217 13.9052 12.5217 15.826L12.5217 25.5652C12.5217 27.4864 14.0789 29.0438 15.9999 29.0438C17.921 29.0441 19.4782 27.486 19.4782 25.5652ZM31.9999 25.5652L31.9999 7.47824C32 5.5574 30.4427 4 28.5217 4C26.6008 4 25.0435 5.5574 25.0435 7.47824L25.0434 25.5652C25.0435 27.4864 26.6007 29.0438 28.5217 29.0438C30.4429 29.0441 31.9999 27.486 31.9999 25.5652Z" fill="#ACD41D" fill-opacity="1.000000" fill-rule="nonzero"/><path id="Infographic" d="M0 25.5655L0 20C0 18.0791 1.55725 16.5217 3.47827 16.5217C5.39929 16.5217 6.95648 18.0791 6.95648 20L6.95648 25.5652C6.95648 27.4864 5.39929 29.0434 3.47827 29.0434C1.55725 29.0438 0 27.4864 0 25.5655ZM19.4782 15.826C19.4782 13.9052 17.921 12.3478 15.9999 12.3478C14.0789 12.3478 12.5217 13.9052 12.5217 15.826L12.5217 25.5652C12.5217 27.4864 14.0789 29.0438 15.9999 29.0438C17.921 29.0441 19.4782 27.486 19.4782 25.5652L19.4782 15.826ZM31.9999 7.47824C32 5.5574 30.4427 4 28.5217 4C26.6008 4 25.0435 5.5574 25.0435 7.47824L25.0434 25.5652C25.0435 27.4864 26.6007 29.0438 28.5217 29.0438C30.4429 29.0441 31.9999 27.486 31.9999 25.5652L31.9999 7.47824Z" stroke="#707070" stroke-opacity="0" stroke-width="1.000000"/></svg>
