<svg width="15.000000" height="15.000000" viewBox="0 0 15 15" fill="none" xmlns="http://www.w3.org/2000/svg" xmlns:xlink="http://www.w3.org/1999/xlink">
	<desc>
			Created with Pixso.
	</desc>
	<defs/>
	<path id="path" d="M7.5 1.25C6.67114 1.25 5.8739 1.40869 5.10828 1.72583C4.34253 2.04297 3.66663 2.49463 3.08057 3.08057C2.49451 3.66675 2.04297 4.34253 1.72571 5.10815C1.40857 5.87402 1.25 6.67114 1.25 7.5C1.25 8.32886 1.40857 9.12598 1.72571 9.89185C2.04297 10.6575 2.49451 11.3333 3.08057 11.9194C3.66663 12.5054 4.34253 12.957 5.10828 13.2742C5.8739 13.5913 6.67114 13.75 7.5 13.75C8.32886 13.75 9.1261 13.5913 9.89172 13.2742C10.6575 12.957 11.3334 12.5054 11.9194 11.9194C12.5055 11.3333 12.957 10.6575 13.2743 9.89185C13.5914 9.12598 13.75 8.32886 13.75 7.5C13.75 6.67114 13.5914 5.87402 13.2743 5.10815C12.957 4.34253 12.5055 3.66675 11.9194 3.08057C11.3334 2.49463 10.6575 2.04297 9.89172 1.72583C9.1261 1.40869 8.32886 1.25 7.5 1.25ZM7.5 12.5C6.83691 12.5 6.1991 12.373 5.58655 12.1194C4.974 11.8657 4.43335 11.5044 3.96448 11.0356C3.49561 10.5667 3.13428 10.0259 2.88062 9.41333C2.62683 8.80078 2.5 8.16309 2.5 7.5C2.5 6.83691 2.62683 6.19922 2.88062 5.58667C3.13428 4.97412 3.49561 4.43335 3.96448 3.96436C4.43335 3.49561 4.974 3.13428 5.58655 2.88062C6.1991 2.62695 6.83691 2.5 7.5 2.5C8.16309 2.5 8.8009 2.62695 9.41345 2.88062C10.026 3.13428 10.5667 3.49561 11.0355 3.96436C11.5044 4.43335 11.8656 4.97412 12.1194 5.58667C12.3732 6.19922 12.5 6.83691 12.5 7.5C12.5 8.16309 12.3732 8.80078 12.1194 9.41333C11.8656 10.0259 11.5044 10.5667 11.0355 11.0356C10.5667 11.5044 10.026 11.8657 9.41345 12.1194C8.8009 12.373 8.16309 12.5 7.5 12.5Z" fill-rule="nonzero" fill="#999999"/>
	<path id="path" d="M10 6.875L8.125 6.875L8.125 5C8.125 4.58325 7.91663 4.375 7.5 4.375C7.08337 4.375 6.875 4.58325 6.875 5L6.875 7.5C6.875 7.91675 7.08337 8.125 7.5 8.125L10 8.125C10.4166 8.125 10.625 7.91675 10.625 7.5C10.625 7.08325 10.4166 6.875 10 6.875Z" fill-rule="nonzero" fill="#999999"/>
</svg>
